# xmcd
#
# Track frame offsets: 
#        150
#        22257
#        37878
#        57457
#        76658
#        95033
#        113480
#
# Disc length: 1756 seconds
#
# Revision: 0
# Processed by: cddbd v1.5.2PL0 Copyright (c) Steve Scherf et al.
# Submitted via: ExactAudioCopy v1.0b3
#
DISCID=4f06da07
DTITLE=Back City Woods - Dirt From Which We Came
DYEAR=2011
DGENRE=Bluegrass
TTITLE0=My Way in Life
TTITLE1=Dirt From Which We Came
TTITLE2=Thinking
TTITLE3=Promises
TTITLE4=Long Time Coming
TTITLE5=Nothing For Me Here
TTITLE6=August 1993
EXTD=
EXTT0=
EXTT1=
EXTT2=
EXTT3=
EXTT4=
EXTT5=
EXTT6=
PLAYORDER=
